<mxfile host="app.diagrams.net" modified="2024-05-01T21:39:05.727Z" agent="Mozilla/5.0 (Macintosh; Intel Mac OS X 10_15_7) AppleWebKit/537.36 (KHTML, like Gecko) Chrome/123.0.0.0 Safari/537.36" version="23.1.7" etag="BkL1FIq10IGOZxJlnTWu" type="github">
  <diagram name="ページ1" id="78oXQUux6CjbYJ6yT8Pk">
    <mxGraphModel>
      <root>
        <mxCell id="0" />
        <mxCell id="1" parent="0" />
      </root>
    </mxGraphModel>
  </diagram>
</mxfile>
